HIERARCHY
ROOT Hips
{
	OFFSET 0.000000 89.005402 0.000000
	CHANNELS 6 Xposition Yposition Zposition Xrotation Yrotation Zrotation
	JOINT Spine
	{
		OFFSET 0.116900 10.681000 0.373400
		CHANNELS 3 Xrotation Yrotation Zrotation
		JOINT Spine1
		{
			OFFSET 0.000000 13.840401 0.053500
			CHANNELS 3 Xrotation Yrotation Zrotation
			JOINT Spine2
			{
				OFFSET 0.000000 14.712700 -0.366200
				CHANNELS 3 Xrotation Yrotation Zrotation
				JOINT Neck
				{
					OFFSET 0.000000 35.415497 -3.314200
					CHANNELS 3 Xrotation Yrotation Zrotation
					JOINT Head
					{
						OFFSET 0.000000 16.899200 1.218300
						CHANNELS 3 Xrotation Yrotation Zrotation
						JOINT HeadTop_End
						{
							OFFSET 0.000000 22.206207 2.192500
							CHANNELS 3 Xrotation Yrotation Zrotation
							End Site
							{
								OFFSET 0.000000 22.314178 0.000000
							}
						}
					}
				}
				JOINT LeftShoulder
				{
					OFFSET 12.896400 26.716293 -4.548400
					CHANNELS 3 Xrotation Yrotation Zrotation
					JOINT LeftArm
					{
						OFFSET 19.027000 -4.857010 -1.718400
						CHANNELS 3 Xrotation Yrotation Zrotation
						JOINT LeftForeArm
						{
							OFFSET 24.179897 0.000000 0.000000
							CHANNELS 3 Xrotation Yrotation Zrotation
							JOINT LeftHand
							{
								OFFSET 27.156403 0.000000 0.000000
								CHANNELS 3 Xrotation Yrotation Zrotation
								JOINT LeftHandIndex1
								{
									OFFSET 16.441200 0.000000 0.000000
									CHANNELS 3 Xrotation Yrotation Zrotation
									JOINT LeftHandIndex2
									{
										OFFSET 4.821899 0.000000 0.000000
										CHANNELS 3 Xrotation Yrotation Zrotation
										JOINT LeftHandIndex3
										{
											OFFSET 6.386497 0.000000 0.000000
											CHANNELS 3 Xrotation Yrotation Zrotation
											JOINT LeftHandIndex4
											{
												OFFSET 5.188988 0.000000 0.000000
												CHANNELS 3 Xrotation Yrotation Zrotation
												End Site
												{
													OFFSET -0.178703 5.185913 0.000177
												}
											}
										}
									}
								}
								JOINT LeftHandThumb1
								{
									OFFSET 6.534897 -5.032593 5.900300
									CHANNELS 3 Xrotation Yrotation Zrotation
									JOINT LeftHandThumb2
									{
										OFFSET 3.818176 -2.204422 2.204423
										CHANNELS 3 Xrotation Yrotation Zrotation
										JOINT LeftHandThumb3
										{
											OFFSET 3.252098 -1.877594 1.877601
											CHANNELS 3 Xrotation Yrotation Zrotation
											JOINT LeftHandThumb4
											{
												OFFSET 5.251778 -3.032120 3.032117
												CHANNELS 3 Xrotation Yrotation Zrotation
												End Site
												{
													OFFSET 0.000023 6.780014 0.000000
												}
											}
										}
									}
								}
							}
						}
					}
				}
				JOINT RightShoulder
				{
					OFFSET -12.896300 26.716293 -4.548400
					CHANNELS 3 Xrotation Yrotation Zrotation
					JOINT RightArm
					{
						OFFSET -19.027000 -4.857010 -1.718400
						CHANNELS 3 Xrotation Yrotation Zrotation
						JOINT RightForeArm
						{
							OFFSET -24.179897 0.000000 0.000000
							CHANNELS 3 Xrotation Yrotation Zrotation
							JOINT RightHand
							{
								OFFSET -27.156403 0.000000 0.000000
								CHANNELS 3 Xrotation Yrotation Zrotation
								JOINT RightHandThumb1
								{
									OFFSET -6.591202 -4.852203 5.988100
									CHANNELS 3 Xrotation Yrotation Zrotation
									JOINT RightHandThumb2
									{
										OFFSET -3.818176 -2.204422 2.204423
										CHANNELS 3 Xrotation Yrotation Zrotation
										JOINT RightHandThumb3
										{
											OFFSET -3.252098 -1.877594 1.877601
											CHANNELS 3 Xrotation Yrotation Zrotation
											JOINT RightHandThumb4
											{
												OFFSET -5.251778 -3.032120 3.032117
												CHANNELS 3 Xrotation Yrotation Zrotation
												End Site
												{
													OFFSET -0.000023 6.780014 0.000000
												}
											}
										}
									}
								}
								JOINT RightHandIndex1
								{
									OFFSET -16.029404 0.000000 0.000000
									CHANNELS 3 Xrotation Yrotation Zrotation
									JOINT RightHandIndex2
									{
										OFFSET -5.213303 0.000000 0.000000
										CHANNELS 3 Xrotation Yrotation Zrotation
										JOINT RightHandIndex3
										{
											OFFSET -6.386528 0.000000 0.000000
											CHANNELS 3 Xrotation Yrotation Zrotation
											JOINT RightHandIndex4
											{
												OFFSET -5.189026 0.000000 0.000000
												CHANNELS 3 Xrotation Yrotation Zrotation
												End Site
												{
													OFFSET 0.236702 5.183624 0.001972
												}
											}
										}
									}
								}
							}
						}
					}
				}
			}
		}
	}
	JOINT LeftUpLeg
	{
		OFFSET 14.073000 -7.904099 -1.463000
		CHANNELS 3 Xrotation Yrotation Zrotation
		JOINT LeftLeg
		{
			OFFSET -0.109806 -34.073280 4.093200
			CHANNELS 3 Xrotation Yrotation Zrotation
			JOINT LeftFoot
			{
				OFFSET 0.109806 -29.899420 -6.319000
				CHANNELS 3 Xrotation Yrotation Zrotation
				JOINT LeftToeBase
				{
					OFFSET 1.551100 -14.988700 20.535801
					CHANNELS 3 Xrotation Yrotation Zrotation
					JOINT LeftToe_End
					{
						OFFSET 0.221200 0.570800 13.248301
						CHANNELS 3 Xrotation Yrotation Zrotation
						End Site
						{
							OFFSET 0.000000 13.262435 0.000000
						}
					}
				}
			}
		}
	}
	JOINT RightUpLeg
	{
		OFFSET -13.839300 -7.904099 -1.463000
		CHANNELS 3 Xrotation Yrotation Zrotation
		JOINT RightLeg
		{
			OFFSET 0.109694 -34.073219 4.093300
			CHANNELS 3 Xrotation Yrotation Zrotation
			JOINT RightFoot
			{
				OFFSET -0.109694 -29.899384 -6.319200
				CHANNELS 3 Xrotation Yrotation Zrotation
				JOINT RightToeBase
				{
					OFFSET -1.551100 -14.988700 20.535801
					CHANNELS 3 Xrotation Yrotation Zrotation
					JOINT RightToe_End
					{
						OFFSET -0.221200 0.570900 13.248299
						CHANNELS 3 Xrotation Yrotation Zrotation
						End Site
						{
							OFFSET 0.000000 13.262440 0.000000
						}
					}
				}
			}
		}
	}
}
MOTION
Frames: 6
Frame Time: 0.033333
101.204758 66.767502 55.945419 38.960232 -52.700234 30.928715 10.658368 18.268775 -12.452677 1.624695 5.307215 -1.723002 1.591307 5.282542 -1.806642 -0.706920 -1.304438 1.478539 -3.609332 -1.044866 -5.960661 -0.000000 -0.000002 0.000000 0.541121 1.850184 -13.452133 -21.097449 23.361895 -25.771455 0.000006 0.000005 -0.000009 -51.243709 -5.305604 46.199359 5.871179 -1.002764 -18.283026 0.236202 1.648292 -16.308420 0.310924 1.884943 -18.732381 0.000003 -0.000000 -0.000001 -0.199563 -11.101514 -8.413936 2.365883 33.396049 0.414817 -9.012751 -8.993956 12.231290 -0.000000 0.000002 0.000000 5.794925 26.523964 -1.795969 15.420571 83.391173 -26.543268 -0.000064 80.229403 0.000064 50.316586 11.070550 -47.811778 -9.080922 6.926843 -5.362787 6.663571 -18.213966 -1.004195 -7.568542 8.340463 -10.032336 0.000000 -0.000000 0.000002 0.176560 5.891068 19.562166 0.001182 -0.104746 1.285972 0.012999 0.348075 -4.276869 0.000001 0.000002 0.000002 -85.497733 8.669037 17.009331 43.742615 12.108658 -9.365976 9.075854 27.273838 16.119637 1.811338 0.000001 -0.000002 0.000000 0.000000 0.000000 1.829978 -4.521476 -5.727046 54.282163 -10.037859 7.691985 -32.265134 -7.764520 22.571366 -48.236251 -0.000020 -0.000028 0.000001 -0.000000 0.000000 
103.068802 65.571144 54.763664 38.178640 -54.259081 32.313417 11.079420 18.868929 -12.538440 1.693257 5.457188 -1.610348 1.667965 5.428438 -1.697997 -0.755085 -1.116421 0.875562 -3.568224 -0.436221 -8.349818 -0.000002 -0.000002 0.000000 0.425483 -0.193839 -12.449607 -20.231867 26.329812 -28.881107 -0.000002 -1.136364 0.000003 -47.506524 -6.005996 44.254305 5.870373 -0.927696 -18.748362 0.239891 1.660914 -16.436688 0.319596 1.910279 -18.994003 0.000000 0.000000 -0.000001 -0.430871 -11.127705 -8.252894 2.427944 33.562477 0.458222 -9.012751 -8.993959 12.231294 -0.000000 -0.000001 0.000000 7.364509 28.294701 -4.620837 39.031041 83.116784 -49.741768 0.000156 83.897713 -0.000152 52.916293 3.130319 -43.639872 -9.410544 7.009299 -5.875589 6.657939 -18.169490 -1.000554 -7.568542 8.340462 -10.032339 -0.000001 -0.000002 0.000000 0.151244 5.884286 19.577014 0.000082 -0.027931 0.342871 0.018218 0.411996 -5.064180 0.000001 -0.000000 0.000001 -85.352926 8.878305 16.575148 42.455817 12.029575 -9.252336 11.300617 29.673340 16.161655 1.886005 0.000007 0.000001 0.000000 -0.000000 -0.000000 3.714936 -6.681734 -7.027343 54.592800 -10.138589 6.873826 -40.487056 -7.330124 21.227950 -47.184268 0.000018 -0.000010 0.000002 -0.000000 -0.000000 
103.874100 64.889481 54.105675 37.147404 -54.532473 32.619874 11.269713 19.142227 -13.144313 1.717699 5.530667 -1.678799 1.687564 5.499401 -1.767621 -0.794329 -1.109569 0.607174 -3.758587 -0.796744 -9.593136 0.000001 0.000001 0.000000 0.357865 -3.044920 -10.933266 -21.727762 27.236629 -29.570601 0.000002 -4.675580 0.000013 -40.045321 -7.178371 41.669540 5.860209 -0.850102 -19.108865 0.238077 1.654719 -16.373654 0.324309 1.923911 -19.134862 -0.000001 -0.000001 0.000003 -0.793781 -11.221440 -7.894124 2.495835 33.729909 0.507914 -9.012750 -8.993955 12.231295 0.000001 -0.000001 -0.000002 7.488939 31.034173 -3.965519 35.286297 81.159812 -46.051908 0.000137 83.905500 -0.000132 55.089857 -2.316125 -41.815910 -9.653579 7.064118 -6.253338 6.654442 -18.140487 -0.998070 -7.568540 8.340462 -10.032337 -0.000000 -0.000002 -0.000000 0.124525 5.878703 19.574419 0.000010 0.002314 0.000025 0.022508 0.457854 -5.629610 -0.000000 0.000000 0.000002 -85.090756 9.219824 15.935163 41.545807 12.170606 -9.160537 12.818257 30.074061 16.073202 2.012537 -0.000003 -0.000004 0.000000 -0.000000 0.000000 4.675081 -7.573736 -7.749021 54.943691 -9.916089 6.534612 -44.175177 -7.215853 20.674974 -46.282284 -0.000002 -0.000016 -0.000000 -0.000000 0.000001 
104.370689 64.506981 53.660515 36.216924 -54.265614 32.625201 11.298196 19.182373 -14.090212 1.717241 5.557352 -1.845048 1.675455 5.523681 -1.933052 -0.811848 -1.101678 0.175317 -4.009561 -1.618376 -10.572751 -0.000002 -0.000000 0.000000 0.434770 -6.286735 -9.192433 -24.875969 25.970150 -28.689226 -0.000003 -8.169918 0.000005 -30.265524 -9.079329 39.836026 5.840977 -0.769205 -19.376449 0.231419 1.631895 -16.141509 0.325442 1.927181 -19.168707 0.000001 -0.000000 -0.000001 -1.274950 -11.378905 -7.361227 2.569714 33.899510 0.563753 -9.012743 -8.993955 12.231293 -0.000003 -0.000001 0.000000 5.076312 34.311554 -1.196388 10.746498 79.288203 -18.511618 -0.000163 80.262434 0.000156 54.786436 -3.792090 -41.779963 -9.874018 7.090380 -6.568264 6.654276 -18.135327 -0.997337 -7.568540 8.340463 -10.032332 -0.000001 -0.000001 -0.000000 0.095955 5.875842 19.555501 -0.000009 -0.000137 0.001689 0.025829 0.490305 -6.029998 -0.000004 -0.000000 -0.000000 -84.676792 9.708373 15.099965 40.320867 12.479701 -9.026074 14.193865 30.031860 16.101119 2.108013 0.000003 -0.000005 0.000000 0.000000 -0.000000 3.936211 -7.267358 -8.613709 57.403266 -9.464320 6.717682 -45.487844 -7.582417 20.739697 -46.388446 0.000002 -0.000003 0.000001 0.000000 -0.000000 
104.816566 64.330505 53.399693 35.251211 -53.553010 32.293124 11.272981 19.092909 -15.202427 1.708387 5.556131 -2.059631 1.651628 5.520341 -2.146072 -0.837594 -1.117131 -0.270836 -4.363198 -2.745173 -11.284490 -0.000001 0.000000 -0.000001 0.704092 -9.657628 -7.275421 -28.763463 22.846081 -27.048625 -0.000000 -11.117676 0.000000 -18.622070 -11.380046 39.507368 5.813019 -0.685442 -19.555783 0.220598 1.594046 -15.757045 0.323270 1.920916 -19.103984 0.000000 -0.000000 0.000002 -1.860307 -11.596836 -6.676106 2.649075 34.070213 0.625214 -9.012751 -8.993956 12.231292 -0.000000 -0.000000 0.000001 1.912410 36.839257 0.237100 -20.780828 76.063801 18.590253 -0.000069 74.327464 0.000068 52.923994 -2.263637 -40.239588 -10.096209 7.092404 -6.851834 6.657655 -18.155848 -0.998626 -7.568539 8.340463 -10.032331 0.000003 0.000000 -0.000000 0.065971 5.874677 19.521051 0.000002 -0.000251 0.003106 0.028194 0.512244 -6.301002 0.000006 0.000002 0.000003 -84.479366 9.814442 13.692820 39.130714 12.230360 -8.768978 14.255698 30.109188 16.610235 1.941540 0.000009 -0.000004 -0.000000 0.000000 -0.000000 3.184737 -6.878719 -9.105936 59.515448 -9.402549 7.203316 -45.909847 -8.235070 20.922676 -46.971289 -0.000008 0.000004 0.000000 -0.000000 -0.000000 
105.204979 64.355347 53.348690 34.298386 -52.328962 31.565948 11.268864 18.868041 -16.411251 1.700667 5.524502 -2.316202 1.626048 5.487592 -2.401070 -0.864828 -1.154037 -0.731058 -4.828965 -4.160465 -11.706234 0.000001 0.000001 0.000001 1.160891 -12.842301 -5.297713 -32.714017 17.752336 -25.221435 0.000003 -13.863179 -0.000002 -6.136278 -13.462632 41.016297 5.776646 -0.598557 -19.656605 0.206456 1.543051 -15.240327 0.318215 1.906272 -18.952622 -0.000001 0.000001 0.000005 -2.536519 -11.871800 -5.861373 2.733903 34.242556 0.692049 -9.012751 -8.993956 12.231292 0.000002 0.000002 -0.000000 -0.330025 38.168286 0.258742 -42.764299 69.630773 44.420760 0.000015 66.286453 -0.000025 50.802192 1.111951 -37.391720 -10.311876 7.074548 -7.099869 6.664161 -18.199843 -1.002069 -7.568543 8.340461 -10.032335 0.000001 0.000001 0.000000 0.034931 5.874434 19.471826 -0.000007 0.000378 -0.000063 0.029552 0.524356 -6.450538 0.000000 0.000004 0.000001 -84.820445 9.131823 11.695204 38.503463 10.783203 -8.348269 12.458546 30.135099 17.342576 1.483259 0.000000 -0.000005 0.000000 -0.000000 -0.000000 2.718801 -6.217432 -9.013006 60.313630 -9.245884 7.622330 -45.379763 -9.079547 21.436043 -47.336172 0.000015 -0.000003 0.000001 0.000000 -0.000000 
